<?xml version="1.0" encoding="UTF-8"?>
<svg version="1.1" xmlns="http://www.w3.org/2000/svg" width="740" height="740">
<path d="M0 0 C244.2 0 488.4 0 740 0 C740 244.2 740 488.4 740 740 C495.8 740 251.6 740 0 740 C0 495.8 0 251.6 0 0 Z " fill="#FEFEFE" transform="translate(0,0)"/>
<path d="M0 0 C15.97736444 13.22423099 27.05886356 28.92049423 35.14453125 47.9609375 C42.07453125 48.4559375 42.07453125 48.4559375 49.14453125 48.9609375 C49.14453125 52.5909375 49.14453125 56.2209375 49.14453125 59.9609375 C53.43453125 59.9609375 57.72453125 59.9609375 62.14453125 59.9609375 C62.14453125 79.1009375 62.14453125 98.2409375 62.14453125 117.9609375 C58.18453125 117.9609375 54.22453125 117.9609375 50.14453125 117.9609375 C50.14453125 121.5909375 50.14453125 125.2209375 50.14453125 128.9609375 C39.91453125 128.9609375 29.68453125 128.9609375 19.14453125 128.9609375 C18.48453125 130.6109375 17.82453125 132.2609375 17.14453125 133.9609375 C8.4164402 150.06846413 -5.73105301 162.95307942 -20.85546875 172.9609375 C-20.02144531 173.33605469 -19.18742188 173.71117187 -18.328125 174.09765625 C8.34714549 186.22833481 25.26071715 203.30777381 36.171875 230.5234375 C53.04484692 277.53271249 33.63658671 333.15079978 14.14453125 375.9609375 C13.7165625 376.98316406 13.28859375 378.00539063 12.84765625 379.05859375 C10.38038232 384.84797048 7.56961661 390.48371775 4.83203125 396.1484375 C4.27580078 397.30408203 3.71957031 398.45972656 3.14648438 399.65039062 C1.48698689 403.09109496 -0.1826794 406.52667842 -1.85546875 409.9609375 C-2.38470947 411.05728516 -2.9139502 412.15363281 -3.45922852 413.28320312 C-7.22926668 420.9913134 -11.43419629 427.29766783 -16.85546875 433.9609375 C-17.54382813 434.81558594 -18.2321875 435.67023438 -18.94140625 436.55078125 C-25.08062024 443.77405719 -32.28440884 449.34074397 -39.85546875 454.9609375 C-40.7578125 455.64542969 -41.66015625 456.32992188 -42.58984375 457.03515625 C-56.25119557 467.06363267 -67.99027834 468.21312136 -84.37231445 468.31103516 C-86.3903359 468.32753521 -88.40830035 468.35474584 -90.42602539 468.39306641 C-111.81097635 468.79625837 -111.81097635 468.79625837 -121.85546875 462.9609375 C-122.81779419 462.45796143 -122.81779419 462.45796143 -123.79956055 461.94482422 C-142.62188778 451.82588 -162.57745915 433.20112581 -170.85546875 412.9609375 C-170.85546875 411.9709375 -170.85546875 410.9809375 -170.85546875 409.9609375 C-171.51546875 409.9609375 -172.17546875 409.9609375 -172.85546875 409.9609375 C-173.27828125 408.78402344 -173.70109375 407.60710937 -174.13671875 406.39453125 C-175.61752989 402.44944971 -177.40527614 398.76268392 -179.35546875 395.0234375 C-188.0885543 377.89562935 -195.6310647 360.14821586 -201.85546875 341.9609375 C-202.14905273 341.12062988 -202.44263672 340.28032227 -202.74511719 339.41455078 C-215.46743816 302.7479256 -223.2624366 256.97969502 -205.6953125 220.60546875 C-205.08582231 219.3887186 -204.4727029 218.17377765 -203.85546875 216.9609375 C-203.32050781 215.89230469 -202.78554687 214.82367188 -202.234375 213.72265625 C-198.41992041 206.67003157 -193.64727469 201.08056484 -188.11328125 195.359375 C-185.84553865 193.18061497 -185.84553865 193.18061497 -184.85546875 190.9609375 C-184.19546875 190.9609375 -183.53546875 190.9609375 -182.85546875 190.9609375 C-182.85546875 190.3009375 -182.85546875 189.6409375 -182.85546875 188.9609375 C-180.71748963 187.40549763 -178.59471625 185.98167365 -176.35546875 184.5859375 C-175.71488525 184.18109131 -175.07430176 183.77624512 -174.41430664 183.35913086 C-159.38442226 173.9609375 -159.38442226 173.9609375 -151.85546875 173.9609375 C-151.85546875 173.3009375 -151.85546875 172.6409375 -151.85546875 171.9609375 C-152.51546875 171.7546875 -153.17546875 171.5484375 -153.85546875 171.3359375 C-158.01831944 169.42796427 -161.28828295 166.81124512 -164.85546875 163.9609375 C-166.36753906 162.79884766 -166.36753906 162.79884766 -167.91015625 161.61328125 C-175.21197939 155.85091405 -180.61353346 149.78525206 -185.734375 142.02734375 C-187.6532783 139.25323861 -189.34094395 137.1837951 -191.85546875 134.9609375 C-192.38599854 134.45103271 -192.91652832 133.94112793 -193.46313477 133.41577148 C-199.25201616 128.36777131 -204.36913036 128.06719823 -211.85546875 128.0859375 C-212.91636719 128.0653125 -213.97726563 128.0446875 -215.0703125 128.0234375 C-217.66502706 127.97668589 -220.26033655 127.96520581 -222.85546875 127.9609375 C-222.85546875 124.3309375 -222.85546875 120.7009375 -222.85546875 116.9609375 C-227.14546875 116.9609375 -231.43546875 116.9609375 -235.85546875 116.9609375 C-235.85546875 98.1509375 -235.85546875 79.3409375 -235.85546875 59.9609375 C-231.56546875 59.9609375 -227.27546875 59.9609375 -222.85546875 59.9609375 C-222.85546875 56.3309375 -222.85546875 52.7009375 -222.85546875 48.9609375 C-218.23546875 48.9609375 -213.61546875 48.9609375 -208.85546875 48.9609375 C-208.19546875 46.9809375 -207.53546875 45.0009375 -206.85546875 42.9609375 C-192.30503133 12.18519217 -166.30587047 -10.90053101 -134.38989258 -22.52612305 C-88.98200305 -38.11777833 -37.65430273 -30.20257557 0 0 Z " fill="#BCC9DB" transform="translate(457.85546875,67.0390625)"/>
<path d="M0 0 C15.97736444 13.22423099 27.05886356 28.92049423 35.14453125 47.9609375 C42.07453125 48.4559375 42.07453125 48.4559375 49.14453125 48.9609375 C49.14453125 52.5909375 49.14453125 56.2209375 49.14453125 59.9609375 C53.43453125 59.9609375 57.72453125 59.9609375 62.14453125 59.9609375 C62.14453125 79.1009375 62.14453125 98.2409375 62.14453125 117.9609375 C58.18453125 117.9609375 54.22453125 117.9609375 50.14453125 117.9609375 C50.14453125 121.5909375 50.14453125 125.2209375 50.14453125 128.9609375 C39.91453125 128.9609375 29.68453125 128.9609375 19.14453125 128.9609375 C18.48453125 130.6109375 17.82453125 132.2609375 17.14453125 133.9609375 C8.41303671 150.07474521 -5.73097649 162.94269584 -20.85546875 172.9609375 C-21.84546875 173.6209375 -22.83546875 174.2809375 -23.85546875 174.9609375 C-25.75222864 175.69302026 -27.65106129 176.42042824 -29.5625 177.11328125 C-31.93382595 177.9899043 -34.26687416 178.93814504 -36.60546875 179.8984375 C-42.27657089 182.17382611 -48.02928731 184.1226899 -53.85546875 185.9609375 C-54.75136719 186.25226563 -55.64726562 186.54359375 -56.5703125 186.84375 C-86.75514081 195.97454975 -123.56224224 188.47374297 -150.85546875 173.9609375 C-151.18546875 173.3009375 -151.51546875 172.6409375 -151.85546875 171.9609375 C-152.53609375 171.7134375 -153.21671875 171.4659375 -153.91796875 171.2109375 C-158.10996971 169.4271073 -161.30967475 166.79415232 -164.85546875 163.9609375 C-166.36753906 162.79884766 -166.36753906 162.79884766 -167.91015625 161.61328125 C-175.21197939 155.85091405 -180.61353346 149.78525206 -185.734375 142.02734375 C-187.6532783 139.25323861 -189.34094395 137.1837951 -191.85546875 134.9609375 C-192.38599854 134.45103271 -192.91652832 133.94112793 -193.46313477 133.41577148 C-199.25201616 128.36777131 -204.36913036 128.06719823 -211.85546875 128.0859375 C-212.91636719 128.0653125 -213.97726563 128.0446875 -215.0703125 128.0234375 C-217.66502706 127.97668589 -220.26033655 127.96520581 -222.85546875 127.9609375 C-222.85546875 124.3309375 -222.85546875 120.7009375 -222.85546875 116.9609375 C-227.14546875 116.9609375 -231.43546875 116.9609375 -235.85546875 116.9609375 C-235.85546875 98.1509375 -235.85546875 79.3409375 -235.85546875 59.9609375 C-231.56546875 59.9609375 -227.27546875 59.9609375 -222.85546875 59.9609375 C-222.85546875 56.3309375 -222.85546875 52.7009375 -222.85546875 48.9609375 C-218.23546875 48.9609375 -213.61546875 48.9609375 -208.85546875 48.9609375 C-208.19546875 46.9809375 -207.53546875 45.0009375 -206.85546875 42.9609375 C-192.30503133 12.18519217 -166.30587047 -10.90053101 -134.38989258 -22.52612305 C-88.98200305 -38.11777833 -37.65430273 -30.20257557 0 0 Z " fill="#BAC8DA" transform="translate(457.85546875,67.0390625)"/>
<path d="M0 0 C1.52637752 -0.00067548 3.05275493 -0.00164754 4.57913208 -0.00289917 C7.76451653 -0.00436554 10.94987276 -0.00225652 14.13525391 0.00244141 C18.18511144 0.00812827 22.23490253 0.0048595 26.28475761 -0.00113106 C29.43348679 -0.00477379 32.58220065 -0.00358101 35.73093033 -0.00100327 C37.22261691 -0.00034372 38.71430496 -0.00112775 40.20598984 -0.00348282 C75.92073041 -0.04749979 75.92073041 -0.04749979 88.1328125 9.1328125 C95.44139555 16.90721732 95.71939624 24.42945421 95.55859375 34.734375 C95.0720715 44.41882157 91.68223495 53.88672749 88.0390625 62.8125 C83.30546538 74.93214091 81.23583747 92.76026205 86.1328125 105.1328125 C89.93719879 113.42508498 95.41053602 119.68615701 103.91015625 123.3203125 C104.64363281 123.5884375 105.37710938 123.8565625 106.1328125 124.1328125 C96.90194799 148.02446182 77.46970767 166.30739741 55.1328125 178.1328125 C54.46636719 178.49117187 53.79992187 178.84953125 53.11328125 179.21875 C43.66407839 184.16248879 34.0636734 183.42046526 23.6159668 183.48291016 C21.59794535 183.49941021 19.5799809 183.52662084 17.56225586 183.56494141 C-3.8226951 183.96813337 -3.8226951 183.96813337 -13.8671875 178.1328125 C-14.50873779 177.79749512 -15.15028809 177.46217773 -15.8112793 177.11669922 C-34.63360653 166.997755 -54.5891779 148.37300081 -62.8671875 128.1328125 C-62.8671875 127.1428125 -62.8671875 126.1528125 -62.8671875 125.1328125 C-63.5271875 125.1328125 -64.1871875 125.1328125 -64.8671875 125.1328125 C-63.57165801 122.54175353 -62.40537044 122.34616715 -59.8046875 121.1328125 C-53.16962554 117.50310556 -48.56290727 112.29813757 -45.703125 105.2734375 C-40.65215656 87.42982937 -45.57690294 68.47028701 -51.71875 51.4921875 C-54.17083652 44.3194174 -55.20977593 38.11047207 -55.1796875 30.5703125 C-55.20385742 29.35311523 -55.20385742 29.35311523 -55.22851562 28.11132812 C-55.23462296 20.54433861 -53.27212699 14.6878892 -47.8671875 9.1328125 C-34.53722533 -0.64249309 -15.71771594 -0.02473703 0 0 Z " fill="#BBC9DB" transform="translate(349.8671875,351.8671875)"/>
<path d="M0 0 C1.66869141 -0.01836914 1.66869141 -0.01836914 3.37109375 -0.03710938 C14.67728963 -0.05685244 25.05135313 1.69262643 35.75 5.3125 C37.10508667 5.76991577 37.10508667 5.76991577 38.48754883 6.23657227 C50.61518818 10.49285014 60.60169823 16.82805744 70.375 25.1875 C70.97441406 25.64253906 71.57382812 26.09757812 72.19140625 26.56640625 C80.46535795 32.99743599 89.39617359 43.73595206 91.375 54.1875 C92.33564423 63.51245124 92.78154313 73.13627013 87.375 81.1875 C86.92769531 81.87972656 86.48039063 82.57195312 86.01953125 83.28515625 C74.19716228 100.24217341 53.43747059 103.65278389 34.390625 107.609375 C23.46551378 109.39195513 12.28697755 109.37400618 1.24414062 109.37280273 C-0.99107888 109.37499127 -3.22580434 109.39324646 -5.4609375 109.41210938 C-18.31066703 109.46272594 -30.94743778 108.33638584 -43.5 105.4375 C-44.233396 105.26903564 -44.96679199 105.10057129 -45.72241211 104.92700195 C-71.01205407 98.89285952 -71.01205407 98.89285952 -79.625 90.1875 C-80.26695312 89.57003906 -80.90890625 88.95257813 -81.5703125 88.31640625 C-89.41845596 80.1563073 -91.23898453 71.8238159 -91.09350586 60.80126953 C-90.64208014 49.54037841 -86.07828943 42.4349924 -78.625 34.1875 C-78.19155273 33.70490723 -77.75810547 33.22231445 -77.31152344 32.72509766 C-69.95778969 24.64638451 -62.10131316 18.58183066 -52.625 13.1875 C-50.99304688 12.23037109 -50.99304688 12.23037109 -49.328125 11.25390625 C-34.21227851 3.00406045 -17.05406066 0.00967881 0 0 Z " fill="#8693A4" transform="translate(370.625,71.8125)"/>
<path d="M0 0 C0.66644783 -0.00073643 1.33289566 -0.00147285 2.01953888 -0.0022316 C72.19752251 -0.06498245 72.19752251 -0.06498245 104.9152832 7.82641602 C106.97222055 8.25727275 108.96818049 8.47063466 111.0625 8.625 C124.77841589 10.00851847 145.47799986 14.83204831 154.9375 25.25 C156.04100914 27.77999656 156.23935486 29.3031331 155.921875 32.0390625 C153.32977431 37.86100294 146.46397737 40.79965747 140.8125 43.0625 C137.57859989 44.13182569 134.29195554 44.94821116 130.9765625 45.72265625 C128.88655396 46.2631757 126.90470883 46.9539161 124.875 47.6875 C105.53373299 54.17785806 83.27073769 56.36422246 62.96484375 57.07421875 C59.89081125 57.12072746 59.89081125 57.12072746 56.9375 58.25 C53.56916865 58.5885633 50.1828681 58.67278675 46.80078125 58.8046875 C45.7475618 58.84673309 44.69434235 58.88877869 43.60920715 58.93209839 C30.54642904 59.40152698 17.48106135 59.40136253 4.41186523 59.38037109 C0.84941534 59.37469081 -2.71295953 59.37805679 -6.27540684 59.383811 C-45.83558565 59.43794375 -86.43429414 58.79600082 -125.0625 49.25 C-126.01817871 49.01410156 -126.97385742 48.77820313 -127.95849609 48.53515625 C-131.29217874 47.69533142 -134.61536633 46.8218504 -137.9375 45.9375 C-139.52630981 45.52987427 -139.52630981 45.52987427 -141.1472168 45.11401367 C-147.64126216 43.32567949 -154.23177712 41.17782668 -159.0625 36.25 C-159.0625 34.93 -159.0625 33.61 -159.0625 32.25 C-159.7225 32.25 -160.3825 32.25 -161.0625 32.25 C-161.875 30.0625 -161.875 30.0625 -162.0625 27.25 C-149.63463575 10.67951433 -119.20983326 8.55762282 -100.33007812 5.71582031 C-67.00684459 0.9653175 -33.62261942 0.02012767 0 0 Z " fill="#E9ECF4" transform="translate(373.0625,643.75)"/>
<path d="M0 0 C15.97736444 13.22423099 27.05886356 28.92049423 35.14453125 47.9609375 C42.07453125 48.4559375 42.07453125 48.4559375 49.14453125 48.9609375 C49.14453125 52.5909375 49.14453125 56.2209375 49.14453125 59.9609375 C53.43453125 59.9609375 57.72453125 59.9609375 62.14453125 59.9609375 C62.14453125 78.7709375 62.14453125 97.5809375 62.14453125 116.9609375 C57.85453125 116.9609375 53.56453125 116.9609375 49.14453125 116.9609375 C49.14453125 120.5909375 49.14453125 124.2209375 49.14453125 127.9609375 C39.57453125 127.9609375 30.00453125 127.9609375 20.14453125 127.9609375 C21.09328125 125.4034375 22.04203125 122.8459375 23.01953125 120.2109375 C31.35344175 96.69518311 30.43481146 71.73091925 20.14453125 48.9609375 C22.45453125 48.9609375 24.76453125 48.9609375 27.14453125 48.9609375 C22.2113904 38.22653325 16.72662944 29.01941785 9.14453125 19.9609375 C8.25121094 18.83945313 8.25121094 18.83945313 7.33984375 17.6953125 C-8.03911113 -0.9949006 -32.8997209 -13.35364364 -56.23046875 -18.6015625 C-57.72707031 -18.94380859 -57.72707031 -18.94380859 -59.25390625 -19.29296875 C-60.44242188 -19.53917969 -61.6309375 -19.78539062 -62.85546875 -20.0390625 C-63.66145508 -20.21187744 -64.46744141 -20.38469238 -65.29785156 -20.56274414 C-97.71111549 -27.07272781 -132.17497473 -18.5860943 -159.66357422 -0.87402344 C-163.22822219 1.5444321 -166.5600937 4.1909121 -169.85546875 6.9609375 C-170.78617187 7.72921875 -171.716875 8.4975 -172.67578125 9.2890625 C-184.5422639 19.53588596 -195.83016797 33.88503515 -200.85546875 48.9609375 C-198.87546875 48.9609375 -196.89546875 48.9609375 -194.85546875 48.9609375 C-195.025625 49.4971875 -195.19578125 50.0334375 -195.37109375 50.5859375 C-195.90424487 52.31017091 -196.41875554 54.04020301 -196.921875 55.7734375 C-197.5597162 57.95117146 -198.23611543 60.11788511 -198.9453125 62.2734375 C-204.18207981 79.86599388 -203.89669105 99.60895957 -197.85546875 116.9609375 C-197.54609375 117.87875 -197.23671875 118.7965625 -196.91796875 119.7421875 C-195.37786478 122.95828698 -192.81320942 124.0962749 -189.85546875 125.9609375 C-189.85546875 126.6209375 -189.85546875 127.2809375 -189.85546875 127.9609375 C-188.77265625 128.363125 -188.77265625 128.363125 -187.66796875 128.7734375 C-184.85546875 129.9609375 -184.85546875 129.9609375 -182.48046875 131.3984375 C-169.11185964 139.35594292 -153.17602502 142.91279143 -138.03369141 145.5703125 C-136.20156223 145.89887187 -134.37693716 146.26889201 -132.5546875 146.6484375 C-126.48939978 147.85646161 -120.52389209 148.1876458 -114.35546875 148.2734375 C-113.57671387 148.29116211 -112.79795898 148.30888672 -111.99560547 148.32714844 C-107.55070329 148.32131906 -105.16299113 147.93019055 -101.85546875 144.9609375 C-95.90001372 142.84015434 -87.71924771 142.8705138 -81.85546875 145.2109375 C-78.89803605 146.93610658 -76.84670941 148.17320057 -74.85546875 150.9609375 C-74.23046875 153.8984375 -74.23046875 153.8984375 -74.85546875 156.9609375 C-79.80437037 162.02492985 -84.49920487 164.24198253 -91.66796875 164.3359375 C-98.23915203 164.23870667 -103.09602805 162.7203782 -107.85546875 157.9609375 C-110.57853812 157.38834912 -110.57853812 157.38834912 -113.8046875 157.06640625 C-115.03405029 156.91840576 -116.26341309 156.77040527 -117.5300293 156.61791992 C-118.18433929 156.54189545 -118.83864929 156.46587097 -119.51278687 156.38754272 C-178.6647628 149.42090264 -178.6647628 149.42090264 -196.5 131.26953125 C-200.82228981 127.56612601 -206.31541877 128.17844701 -211.73046875 128.1484375 C-212.80039063 128.12330078 -213.8703125 128.09816406 -214.97265625 128.07226562 C-217.59986803 128.0136225 -220.22770695 127.98436163 -222.85546875 127.9609375 C-222.85546875 124.3309375 -222.85546875 120.7009375 -222.85546875 116.9609375 C-227.14546875 116.9609375 -231.43546875 116.9609375 -235.85546875 116.9609375 C-235.85546875 98.1509375 -235.85546875 79.3409375 -235.85546875 59.9609375 C-231.56546875 59.9609375 -227.27546875 59.9609375 -222.85546875 59.9609375 C-222.85546875 56.3309375 -222.85546875 52.7009375 -222.85546875 48.9609375 C-218.23546875 48.9609375 -213.61546875 48.9609375 -208.85546875 48.9609375 C-208.19546875 46.9809375 -207.53546875 45.0009375 -206.85546875 42.9609375 C-192.30503133 12.18519217 -166.30587047 -10.90053101 -134.38989258 -22.52612305 C-88.98200305 -38.11777833 -37.65430273 -30.20257557 0 0 Z " fill="#53687E" transform="translate(457.85546875,67.0390625)"/>
<path d="M0 0 C1.93005567 1.80942719 3.40715026 3.43027292 5 5.5 C5.95572382 6.68620223 6.91145327 7.87239991 7.8671875 9.05859375 C8.62273926 10.01354736 8.62273926 10.01354736 9.39355469 10.98779297 C11.07149803 13.08955726 12.78383926 15.15851204 14.5078125 17.22265625 C26.2253742 31.25834356 36.76956733 45.85908662 47 61 C47.47679199 61.70157227 47.95358398 62.40314453 48.44482422 63.12597656 C56.07539398 74.35463453 63.11427487 85.74033291 69 98 C60.8584391 102.07078045 46.97300902 100.18629487 37.86914062 100.18530273 C35.63392112 100.18749127 33.39919566 100.20574646 31.1640625 100.22460938 C18.31433297 100.27522594 5.67756222 99.14888584 -6.875 96.25 C-7.608396 96.08153564 -8.34179199 95.91307129 -9.09741211 95.73950195 C-34.38705407 89.70535952 -34.38705407 89.70535952 -43 81 C-43.64195312 80.38253906 -44.28390625 79.76507813 -44.9453125 79.12890625 C-52.79345596 70.9688073 -54.61398453 62.6363159 -54.46850586 51.61376953 C-54.01708014 40.35287841 -49.45328943 33.2474924 -42 25 C-41.3498291 24.27611084 -41.3498291 24.27611084 -40.68652344 23.53759766 C-33.32766466 15.45325422 -25.46062883 9.43930768 -16 4 C-15.04351562 3.43925781 -14.08703125 2.87851563 -13.1015625 2.30078125 C-8.26950002 -0.34742116 -5.50758501 -1.74596123 0 0 Z " fill="#52687E" transform="translate(334,81)"/>
<path d="M0 0 C2.8909226 0.00535943 5.78168948 0.00001623 8.67260742 -0.00634766 C41.22457607 -0.02140183 41.22457607 -0.02140183 55.4597168 2.81787109 C56.33563477 2.98939697 57.21155273 3.16092285 58.11401367 3.33764648 C70.16937877 5.89997176 78.06799611 11.35003206 85.34643555 21.18896484 C88.45994827 26.61849404 88.84716636 31.84196055 88.8347168 37.94287109 C88.83310547 38.77310791 88.83149414 39.60334473 88.82983398 40.45874023 C88.60047093 52.29454859 85.22041975 63.14509925 81.40893555 74.26318359 C78.62358282 82.67655354 77.1822561 90.6600017 77.0847168 99.50537109 C77.06393066 100.62903076 77.06393066 100.62903076 77.04272461 101.77539062 C77.10999936 109.71912194 79.83874258 115.38164747 85.4597168 121.13037109 C87.73677916 122.65945871 90.00787542 123.88041274 92.4597168 125.13037109 C91.96173309 128.86524887 91.58479923 130.94274744 89.4597168 134.13037109 C82.68052454 133.17723334 77.84483128 129.09155136 73.6159668 123.84130859 C65.66888554 112.19338068 64.64922405 98.41562798 67.1784668 84.73193359 C68.89198954 76.71551663 71.37182441 69.02466435 74.3112793 61.37646484 C76.82651867 54.26706376 77.80212151 48.06199263 77.7722168 40.56787109 C77.78833008 39.75640625 77.80444336 38.94494141 77.82104492 38.10888672 C77.82643303 31.43302106 76.5776809 26.73244128 72.2722168 21.44287109 C58.29006618 9.94643614 38.60911501 10.97108605 21.50268555 10.96240234 C19.98635326 10.95917747 18.47002126 10.95581255 16.95368958 10.95231628 C13.79284953 10.94637105 10.63203664 10.94447164 7.47119141 10.94506836 C3.46423483 10.94516982 -0.54254394 10.9315133 -4.5494585 10.91429615 C-7.67686224 10.90306079 -10.80422451 10.90115264 -13.93164635 10.90167809 C-15.4069041 10.90051542 -16.88216356 10.89619294 -18.35740089 10.88834572 C-34.5718931 10.81014685 -53.67856049 10.91057043 -66.5402832 22.13037109 C-72.30256247 30.00548609 -71.39395291 40.8085867 -70.5402832 50.13037109 C-69.60459271 55.19676589 -67.91322879 60.02915273 -66.26342773 64.89892578 C-64.94317586 68.97289678 -63.87434595 73.11352038 -62.7902832 77.25537109 C-62.57992432 78.0371875 -62.36956543 78.81900391 -62.15283203 79.62451172 C-58.84626671 92.16376474 -57.53615931 105.85515443 -62.5402832 118.13037109 C-66.84018463 125.26659247 -72.35260395 130.03738708 -79.5402832 134.13037109 C-82.51155028 131.41959866 -83.42272054 128.99885723 -84.5402832 125.13037109 C-83.61795898 124.44201172 -83.61795898 124.44201172 -82.67700195 123.73974609 C-81.86875977 123.12615234 -81.06051758 122.51255859 -80.2277832 121.88037109 C-79.42727539 121.27708984 -78.62676758 120.67380859 -77.80200195 120.05224609 C-72.61964106 115.64858192 -70.85702041 111.0815091 -70.1340332 104.34521484 C-69.71025387 92.65275766 -72.23187588 82.69677682 -75.76635742 71.62402344 C-76.92616055 67.88704264 -77.90761879 64.11394888 -78.8527832 60.31787109 C-79.15829102 59.11517578 -79.46379883 57.91248047 -79.77856445 56.67333984 C-82.42214799 44.3772872 -83.82716467 30.4971969 -77.5402832 19.13037109 C-70.76717368 9.95845195 -61.04608677 5.10181738 -49.9777832 3.19287109 C-47.50102789 2.82221693 -45.02204184 2.46589377 -42.5402832 2.13037109 C-41.80632324 1.96706299 -41.07236328 1.80375488 -40.31616211 1.63549805 C-36.76598396 0.98947179 -33.22710922 0.76652454 -29.63012695 0.57568359 C-28.84870834 0.533638 -28.06728973 0.49159241 -27.26219177 0.44827271 C-18.17730892 0.00421079 -9.09392202 -0.01997482 0 0 Z " fill="#67809C" transform="translate(366.540283203125,341.86962890625)"/>
<path d="M0 0 C6.844659 3.30873966 13.77142042 5.48313602 21.10888672 7.44433594 C22.71183594 7.88495361 22.71183594 7.88495361 24.34716797 8.33447266 C36.7253057 11.56479939 49.02286436 11.77586903 61.73388672 11.50683594 C62.88888672 11.49007812 64.04388672 11.47332031 65.23388672 11.45605469 C79.6125125 10.87358721 97.97059189 6.42883444 110.35498047 -1.08300781 C114.04988425 -3.27325455 117.46964551 -3.75409992 121.73388672 -3.49316406 C124.91522527 -2.46319969 127.80817593 -1.1047258 130.73388672 0.50683594 C129.09218858 2.20325735 127.42212129 3.85705774 125.73388672 5.50683594 C125.07517578 6.17328125 124.41646484 6.83972656 123.73779297 7.52636719 C116.25365848 14.73284407 102.7374312 25.50683594 91.73388672 25.50683594 C91.73388672 26.16683594 91.73388672 26.82683594 91.73388672 27.50683594 C90.69490234 27.76078125 89.65591797 28.01472656 88.58544922 28.27636719 C87.17645474 28.62345434 85.7676107 28.97115255 84.35888672 29.31933594 C83.62589355 29.50020752 82.89290039 29.6810791 82.13769531 29.86743164 C78.16572031 30.85933155 74.25564838 31.93288425 70.35888672 33.19433594 C62.39404229 35.6494621 54.01213567 35.70221023 45.73388672 35.69433594 C44.83468506 35.69353027 43.9354834 35.69272461 43.0090332 35.69189453 C36.89990797 35.6371523 30.86941054 35.29456671 24.79638672 34.63183594 C24.07 34.55344482 23.34361328 34.47505371 22.59521484 34.39428711 C18.42071376 33.88229221 14.69035898 32.90357326 10.73388672 31.50683594 C9.59951172 31.36246094 8.46513672 31.21808594 7.29638672 31.06933594 C0.59482654 30.01119486 -5.27134703 26.54940574 -11.26611328 23.50683594 C-13.43224681 22.42243699 -15.59893753 21.3391505 -17.76611328 20.25683594 C-19.59944661 19.34016927 -21.43277995 18.4235026 -23.26611328 17.50683594 C-23.26611328 16.84683594 -23.26611328 16.18683594 -23.26611328 15.50683594 C-23.98798828 15.25933594 -24.70986328 15.01183594 -25.45361328 14.75683594 C-28.5421791 13.38414002 -30.77622746 11.78330298 -33.26611328 9.50683594 C-33.26611328 8.84683594 -33.26611328 8.18683594 -33.26611328 7.50683594 C-32.60611328 7.50683594 -31.94611328 7.50683594 -31.26611328 7.50683594 C-31.19263672 6.8996875 -31.11916016 6.29253906 -31.04345703 5.66699219 C-29.97361724 2.69402031 -28.64924855 2.27764715 -25.82861328 0.94433594 C-23.9787169 0.12215977 -22.12450707 -0.69037965 -20.26611328 -1.49316406 C-19.52232422 -1.91082031 -18.77853516 -2.32847656 -18.01220703 -2.75878906 C-11.16074132 -5.95216786 -6.28331542 -3.10036464 0 0 Z " fill="#A6B8CE" transform="translate(317.26611328125,244.4931640625)"/>
<path d="M0 0 C1.59328125 0.3403125 1.59328125 0.3403125 3.21875 0.6875 C11.2879118 2.58612631 18.6283173 6.30701357 26 10 C26.98355469 10.48597656 27.96710938 10.97195312 28.98046875 11.47265625 C36.23785425 15.23225422 42.64558642 19.87628312 49 25 C49.90621094 25.72703125 50.81242188 26.4540625 51.74609375 27.203125 C63.94861332 37.61688626 73.98312954 51.10004078 80 66 C80 66.66 80 67.32 80 68 C76.74609375 68.3671875 76.74609375 68.3671875 73 68 C70.84765625 65.5078125 70.84765625 65.5078125 69.0625 62.125 C68.38249343 60.91520754 67.69752383 59.70819236 67.0078125 58.50390625 C66.67040039 57.90465332 66.33298828 57.30540039 65.98535156 56.68798828 C53.86958778 35.93268828 31.09918737 21.77564 9 14 C8.44054687 13.68804687 7.88109375 13.37609375 7.3046875 13.0546875 C3.91968836 11.5056201 0.36273887 10.76371767 -3.25 9.9375 C-4.33861328 9.67743164 -4.33861328 9.67743164 -5.44921875 9.41210938 C-27.35096225 4.31731878 -50.52535878 5.78818118 -72 12 C-72.68046387 12.19223145 -73.36092773 12.38446289 -74.06201172 12.58251953 C-85.39423911 15.8908322 -96.63954631 21.57979949 -106.375 28.27734375 C-109 30 -109 30 -111 30 C-111.33 30.99 -111.66 31.98 -112 33 C-113.54545358 34.25641837 -115.13780162 35.45545724 -116.75 36.625 C-121.91636705 40.73920875 -125.88155864 45.24927908 -129.875 50.5 C-130.40963867 51.19947754 -130.94427734 51.89895508 -131.49511719 52.61962891 C-135.13089013 57.51323814 -138.16332892 62.60732903 -141 68 C-143.31 68 -145.62 68 -148 68 C-145.52511624 50.44786386 -126.71042107 31.90735743 -113.37011719 21.76025391 C-80.2369055 -2.71848019 -39.77239432 -9.48362083 0 0 Z " fill="#F8F9F9" transform="translate(405,48)"/>
<path d="M0 0 C2.97 0 5.94 0 9 0 C9 0.66 9 1.32 9 2 C9.53625 2.226875 10.0725 2.45375 10.625 2.6875 C13 4 13 4 16.0625 6.5625 C18.80205688 9.13537799 18.80205688 9.13537799 22 10 C22.33 9.34 22.66 8.68 23 8 C23.93423645 11.01031744 24.04449911 11.86650268 23 15 C23.78219247 16.74465644 23.78219247 16.74465644 24.9375 18.625 C27.18421538 23.35246362 27.42048304 27.60648809 27.4375 32.75 C27.4470874 33.48299316 27.4566748 34.21598633 27.46655273 34.97119141 C27.3970527 39.4799415 26.69346658 42.37060737 24 46 C12.92796055 45.36543647 12.92796055 45.36543647 8 42 C6.375 39.625 6.375 39.625 5 37 C4.36835938 36.24460937 3.73671875 35.48921875 3.0859375 34.7109375 C-2.80840203 27.05050373 -4.5703049 18.25745096 -4.37109375 8.77734375 C-4.00971661 6.07272119 -3.38842821 4.32519905 -2 2 C-1.34 2 -0.68 2 0 2 C0 1.34 0 0.68 0 0 Z " fill="#D2DAE2" transform="translate(456,262)"/>
<path d="M0 0 C1.32 0 2.64 0 4 0 C4.33 0.804375 4.66 1.60875 5 2.4375 C9.24544785 10.84866897 16.54119385 17.49785371 25.3059082 20.89331055 C27.7935125 21.68777573 30.28861024 22.39234663 32.8125 23.0625 C33.72104736 23.31217529 34.62959473 23.56185059 35.56567383 23.8190918 C41.73613571 25.4816246 47.93961073 26.97119151 54.1875 28.3125 C55.29798706 28.55141968 55.29798706 28.55141968 56.4309082 28.79516602 C66.9035371 30.92919784 77.28632065 31.15974212 87.93896484 31.13037109 C90.2315136 31.12504296 92.52386367 31.13032736 94.81640625 31.13671875 C121.09243991 31.15478847 154.68765657 29.37952365 174.41015625 9.72265625 C174.93480469 9.15417969 175.45945312 8.58570313 176 8 C176.33 8.66 176.66 9.32 177 10 C172.19546928 19.87597981 161.93967092 25.36698737 152 29 C148.0322601 30.15354236 144.02820944 31.08381887 140 32 C138.45119141 32.38671875 138.45119141 32.38671875 136.87109375 32.78125 C124.44330546 35.831014 111.90572949 37.07252612 99.1875 38.1875 C98.11846436 38.28361572 97.04942871 38.37973145 95.94799805 38.47875977 C94.94808838 38.56182373 93.94817871 38.6448877 92.91796875 38.73046875 C92.01844482 38.80676514 91.1189209 38.88306152 90.19213867 38.96166992 C88 39 88 39 86 38 C84.61434301 37.90643824 83.22472141 37.8682264 81.8359375 37.859375 C68.32293608 37.61086293 55.72407522 35.78146948 42.58935547 32.62011719 C40.38879141 32.09311052 38.18524173 31.60567035 35.97265625 31.1328125 C24.02163899 28.25799735 10.13866225 21.7424225 3.09375 11.25 C1.29414883 7.54796332 0.5812963 4.06907413 0 0 Z " fill="#C8D8E9" transform="translate(279,149)"/>
<path d="M0 0 C3.5625 0.5 3.5625 0.5 5.8125 2.5625 C9.3889504 8.56582745 11.10494737 13.35029701 11 20.375 C10.99081543 21.42445801 10.99081543 21.42445801 10.98144531 22.49511719 C10.76496384 29.67897151 8.74219728 34.34319705 4.75 40.125 C2.5625 41.5 2.5625 41.5 -0.875 41.75 C-5.26551205 40.20946946 -6.26947921 38.52832808 -8.4921875 34.60546875 C-11.75000141 27.34942867 -11.69775769 17.2041302 -9.6484375 9.5546875 C-7.48706513 4.55548271 -5.68617717 0.82708032 0 0 Z " fill="#EDF7F9" transform="translate(403.4375,107.5)"/>
<path d="M0 0 C3.5625 0.5 3.5625 0.5 5.8125 2.5625 C9.3889504 8.56582745 11.10494737 13.35029701 11 20.375 C10.99081543 21.42445801 10.99081543 21.42445801 10.98144531 22.49511719 C10.76600554 29.64440319 8.86814605 34.45059716 4.625 40.0625 C2.5625 41.5 2.5625 41.5 0.125 42.0625 C-3.72489902 41.21740022 -5.03280505 39.60079086 -7.4375 36.5 C-11.68903392 28.65752906 -11.99836442 18.10074881 -9.640625 9.640625 C-7.49888992 4.59931012 -5.72463903 0.83267477 0 0 Z " fill="#EAF2FB" transform="translate(338.4375,107.5)"/>
<path d="M0 0 C3.96 0 7.92 0 12 0 C12 18.48 12 36.96 12 56 C8.04 56 4.08 56 0 56 C0 37.52 0 19.04 0 0 Z " fill="#647C9A" transform="translate(508,128)"/>
<path d="M0 0 C3.96 0.33 7.92 0.66 12 1 C12 19.15 12 37.3 12 56 C6.06 56.495 6.06 56.495 0 57 C0 38.19 0 19.38 0 0 Z " fill="#637D98" transform="translate(222,127)"/>
<path d="M0 0 C2.99376434 2.22613246 3.84612872 3.27680498 4.625 6.9375 C3.90501597 10.46542174 2.61841263 11.73766462 -0.19921875 13.921875 C-6.2480189 17.54328246 -12.10221803 17.74956492 -19 17 C-22.90321193 15.70097186 -26.06427192 13.93572808 -29 11 C-31.20250992 10.53993654 -31.20250992 10.53993654 -33.625 10.375 C-34.44226563 10.30023438 -35.25953125 10.22546875 -36.1015625 10.1484375 C-36.72804688 10.09945312 -37.35453125 10.05046875 -38 10 C-38 9.67 -38 9.34 -38 9 C-35.36 9 -32.72 9 -30 9 C-30 7.35 -30 5.7 -30 4 C-31.32 3.34 -32.64 2.68 -34 2 C-32.9275 1.896875 -31.855 1.79375 -30.75 1.6875 C-27.02170354 1.00397898 -25.80976269 0.32532085 -23 -2 C-15.49843402 -4.4781959 -6.78717349 -3.95918453 0 0 Z " fill="#667C99" transform="translate(379,214)"/>
<path d="M0 0 C0.495 1.98 0.495 1.98 1 4 C-0.25490234 4.38478516 -0.25490234 4.38478516 -1.53515625 4.77734375 C-12.68701087 8.44522949 -22.35868609 13.8424938 -31.81640625 20.78125 C-35 23 -35 23 -37 23 C-37.09410156 23.59554687 -37.18820312 24.19109375 -37.28515625 24.8046875 C-38.16011749 27.49172694 -39.24365267 28.38269297 -41.4375 30.125 C-43.39564974 31.70296618 -45.21849868 33.21849868 -47 35 C-46.13986802 29.0473406 -40.95562903 25.17679039 -37 21 C-36.06800781 19.95392578 -36.06800781 19.95392578 -35.1171875 18.88671875 C-27.89829041 11.08968487 -10.9663076 -3.04512584 0 0 Z " fill="#455469" transform="translate(333,81)"/>
<path d="M0 0 C9.11111889 -0.77212872 17.38796803 1.92531202 25 7 C25 8.32 25 9.64 25 11 C15.38153041 11.59495688 8.08689834 10.39126556 0 5 C-0.1875 2.375 -0.1875 2.375 0 0 Z " fill="#DEE9F2" transform="translate(407,64)"/>
<path d="M0 0 C2.60797351 1.26347163 5.21123407 2.53535224 7.8125 3.8125 C8.55048828 4.16892578 9.28847656 4.52535156 10.04882812 4.89257812 C10.76103516 5.24384766 11.47324219 5.59511719 12.20703125 5.95703125 C12.8616333 6.27647705 13.51623535 6.59592285 14.19067383 6.92504883 C16.11617064 8.06901894 17.48835511 9.35744135 19 11 C18.34 11 17.68 11 17 11 C17.33 11.99 17.66 12.98 18 14 C15.08517222 14.80967438 13.53886783 15.21845993 10.6875 14.0625 C10.130625 13.711875 9.57375 13.36125 9 13 C9 12.34 9 11.68 9 11 C5.37 11 1.74 11 -2 11 C-2 10.67 -2 10.34 -2 10 C1.3 10 4.6 10 8 10 C7.48805401 5.96710825 7.48805401 5.96710825 4.93359375 4.734375 C3.69802734 4.24710937 3.69802734 4.24710937 2.4375 3.75 C1.61121094 3.41484375 0.78492188 3.0796875 -0.06640625 2.734375 C-0.70449219 2.49203125 -1.34257812 2.2496875 -2 2 C-1.34 1.34 -0.68 0.68 0 0 Z " fill="#CBD4DF" transform="translate(424,65)"/>
<path d="M0 0 C0.33 0 0.66 0 1 0 C1.02715383 1.74991334 1.04646551 3.49994945 1.0625 5.25 C1.07410156 6.22453125 1.08570313 7.1990625 1.09765625 8.203125 C1.0111252 10.68137426 0.84745178 12.67616995 0 15 C-0.99 15.495 -0.99 15.495 -2 16 C-3.12706706 18.11015954 -3.12706706 18.11015954 -4.125 20.5625 C-4.47820312 21.38878906 -4.83140625 22.21507812 -5.1953125 23.06640625 C-5.46085937 23.70449219 -5.72640625 24.34257812 -6 25 C-6.33 25 -6.66 25 -7 25 C-6.19611005 16.35818304 -3.31037022 7.98645371 0 0 Z " fill="#ABBBD2" transform="translate(263,116)"/>
<path d="M0 0 C1.32 1.32 2.64 2.64 4 4 C3.67 4.78375 3.34 5.5675 3 6.375 C1.88133489 8.84332497 1.88133489 8.84332497 2 11 C2.99 11.33 3.98 11.66 5 12 C4.67 18.27 4.34 24.54 4 31 C3.34 31.33 2.68 31.66 2 32 C2.04640625 30.73285156 2.0928125 29.46570313 2.140625 28.16015625 C2.74902759 16.43254638 2.74902759 16.43254638 -1.3203125 5.69140625 C-2 4 -2 4 -1.1171875 1.77734375 C-0.56417969 0.89755859 -0.56417969 0.89755859 0 0 Z " fill="#C7CFDE" transform="translate(480,273)"/>
<path d="M0 0 C0 4.25957497 -1.97098401 5.40597057 -4.875 8.4375 C-9.08390885 12.77895366 -9.08390885 12.77895366 -12 18 C-12.99 17.67 -13.98 17.34 -15 17 C-12.88081578 14.34946085 -10.75369484 11.70540488 -8.625 9.0625 C-8.02171875 8.30775391 -7.4184375 7.55300781 -6.796875 6.77539062 C-6.21679688 6.05673828 -5.63671875 5.33808594 -5.0390625 4.59765625 C-4.23782959 3.60004272 -4.23782959 3.60004272 -3.42041016 2.58227539 C-2 1 -2 1 0 0 Z " fill="#CAD1DF" transform="translate(285,87)"/>
<path d="M0 0 C3.63 1.65 7.26 3.3 11 5 C10.01 5.33 9.02 5.66 8 6 C7.67 6.99 7.34 7.98 7 9 C3.17475764 7.549046 1.80909034 5.61818068 0 2 C0 1.34 0 0.68 0 0 Z " fill="#B0BDD1" transform="translate(270,204)"/>
<path d="M0 0 C0.33 0 0.66 0 1 0 C1.26396639 3.07960793 1.26608516 4.59804157 -0.46875 7.21875 C-2.38070029 10.69147604 -2.5033051 13.37072922 -2.6875 17.3125 C-2.75324219 18.56675781 -2.81898438 19.82101563 -2.88671875 21.11328125 C-2.92410156 22.06589844 -2.96148437 23.01851562 -3 24 C-3.33 24 -3.66 24 -4 24 C-4.41732107 15.20148083 -4.71248522 7.76297789 0 0 Z " fill="#D1D7E0" transform="translate(332,111)"/>
<path d="M0 0 C0.33 0.66 0.66 1.32 1 2 C-8.41002278 3.33257403 -8.41002278 3.33257403 -13 2 C-13 1.67 -13 1.34 -13 1 C-8.59085217 -0.10228696 -4.51617599 -0.07654536 0 0 Z " fill="#AEC1D6" transform="translate(332,353)"/>
<path d="M0 0 C1.58870378 6.07294833 1.11738912 9.41467783 -2 15 C-2.33 15 -2.66 15 -3 15 C-2.35812082 9.86496656 -1.31727753 5.0056546 0 0 Z " fill="#9EB2CB" transform="translate(259,126)"/>
<path d="M0 0 C0.99 0.66 1.98 1.32 3 2 C1.50260417 3.23697917 0.00520833 4.47395833 -1.4921875 5.7109375 C-2.71051161 6.75250992 -3.86660097 7.86660097 -5 9 C-4.42647107 5.12867972 -2.51295648 2.91827204 0 0 Z " fill="#4A5B6D" transform="translate(291,107)"/>
<path d="M0 0 C0.99 0.33 1.98 0.66 3 1 C3 1.99 3 2.98 3 4 C1.35 4.66 -0.3 5.32 -2 6 C-1.34 4.02 -0.68 2.04 0 0 Z " fill="#414F63" transform="translate(310,90)"/>
<path d="M0 0 C2.97 0.495 2.97 0.495 6 1 C6 1.99 6 2.98 6 4 C4.02 3.34 2.04 2.68 0 2 C0 1.34 0 0.68 0 0 Z " fill="#E5EBF2" transform="translate(434,75)"/>
</svg>
